<svg xmlns="http://www.w3.org/2000/svg"  viewBox="0 0 48 48" width="48px" height="48px" baseProfile="basic"><linearGradient id="S1ndCatcow1JktaNPgeUea" x1="18.909" x2="25.395" y1="51.598" y2="27.391" gradientUnits="userSpaceOnUse"><stop offset="0" stop-color="#e8ddb4"/><stop offset="1" stop-color="#8f4c5e"/></linearGradient><path fill="url(#S1ndCatcow1JktaNPgeUea)" d="M37,41H9c-2.75,0-5-2.25-5-5v0h38v0C42,38.75,39.75,41,37,41z"/><linearGradient id="S1ndCatcow1JktaNPgeUeb" x1="36.078" x2="14.931" y1="47.882" y2="-10.221" gradientUnits="userSpaceOnUse"><stop offset="0" stop-color="#e8ddb4"/><stop offset="1" stop-color="#8f4c5e"/></linearGradient><path fill="url(#S1ndCatcow1JktaNPgeUeb)" d="M40,7v4c0,8-3,16-7,22l-2,3H15l-2-3c-4-7-7-14-7-22v0c0-2.209,1.791-4,4-4H40z"/><linearGradient id="S1ndCatcow1JktaNPgeUec" x1="53.85" x2="32.097" y1="28.3" y2="22.471" gradientUnits="userSpaceOnUse"><stop offset="0" stop-color="#e8ddb4"/><stop offset="1" stop-color="#8f4c5e"/></linearGradient><path fill="url(#S1ndCatcow1JktaNPgeUec)" d="M40,18h-0.732c-0.871,4.287-2.464,8.394-4.453,12H40c1.66,0,3.16-0.67,4.24-1.76	C45.33,27.16,46,25.66,46,24C46,20.69,43.31,18,40,18z"/></svg>